<?xml version="1.0" encoding="UTF-8"?>
<svg width="20px" height="20px" viewBox="0 0 20 20" version="1.1" xmlns="http://www.w3.org/2000/svg" xmlns:xlink="http://www.w3.org/1999/xlink">
    <title>D35A30C5-EB6E-4892-A2C4-95E099B34CCF</title>
    <defs>
        <polygon id="path-1" points="0 0 1120 0 1120 874.31878 0 874.31878"></polygon>
    </defs>
    <g id="✅-Radar-covid-QR" stroke="none" stroke-width="1" fill="none" fill-rule="evenodd">
        <g id="4.-T_Radar-covid-sanitario/a-login--" transform="translate(-898.000000, -436.000000)">
            <rect fill="#FAF9F7" x="0" y="0" width="1024" height="768"></rect>
            <rect id="Rectangle-Copy" stroke="#65498D" fill="#FFFFFF" x="583.5" y="426.5" width="344" height="39" rx="8"></rect>
            <g id="Group-3-Copy" opacity="0.300292969" transform="translate(-48.000000, 114.000000)">
                <mask id="mask-2" fill="white">
                    <use xlink:href="#path-1"></use>
                </mask>
                <g id="Clip-2"></g>
                <path d="M1116.81359,453.619707 C1084.15277,716.595297 844.619585,903.286922 581.810523,870.605885 C318.993772,837.921001 -30.5327445,577.976919 2.13191971,315.005177 C34.7927392,52.0257406 407.960384,161.121543 687.178671,26.6041643 C925.792967,-88.3546046 1149.47441,190.647965 1116.81359,453.619707" id="Fill-1" fill="#EEEEEE" mask="url(#mask-2)"></path>
            </g>
            <g id="Group-17" transform="translate(583.000000, 178.000000)">
                <g id="container/rounded/border-fill" transform="translate(0.000000, 248.000000)"></g>
            </g>
            <g id="Icon/check-Copy" transform="translate(898.000000, 436.000000)">
                <path d="M10,0 C15.5228475,0 20,4.4771525 20,10 C20,15.5228475 15.5228475,20 10,20 C4.4771525,20 0,15.5228475 0,10 C0,4.4771525 4.4771525,0 10,0 Z M6.7843055,6.08859116 C6.58943736,5.95359511 6.32001296,5.97288026 6.14644661,6.14644661 C5.95118446,6.34170876 5.95118446,6.65829124 6.14644661,6.85355339 L6.14644661,6.85355339 L9.328,10.035 L6.14644661,13.2175144 L6.08859116,13.2867623 C5.95359511,13.4816304 5.97288026,13.7510549 6.14644661,13.9246212 C6.32001296,14.0981876 6.58943736,14.1174727 6.7843055,13.9824767 L6.7843055,13.9824767 L6.85355339,13.9246212 L10.035,10.742 L13.2175144,13.9246212 L13.2867623,13.9824767 C13.4816304,14.1174727 13.7510549,14.0981876 13.9246212,13.9246212 C14.1198833,13.7293591 14.1198833,13.4127766 13.9246212,13.2175144 L13.9246212,13.2175144 L10.742,10.035 L13.9246212,6.85355339 L13.9824767,6.7843055 C14.1174727,6.58943736 14.0981876,6.32001296 13.9246212,6.14644661 C13.7510549,5.97288026 13.4816304,5.95359511 13.2867623,6.08859116 L13.2867623,6.08859116 L13.2175144,6.14644661 L10.035,9.328 L6.85355339,6.14644661 Z" id="Combined-Shape" fill="#A066A2"></path>
                <g id="Icon/close-mini" transform="translate(6.000000, 6.000000)"></g>
            </g>
        </g>
    </g>
</svg>