<?xml version="1.0" encoding="UTF-8"?>
<svg width="20px" height="20px" viewBox="0 0 20 20" version="1.1" xmlns="http://www.w3.org/2000/svg" xmlns:xlink="http://www.w3.org/1999/xlink">
    <title>098BA2ED-CBBE-4D60-A448-6F09034827C1</title>
    <defs>
        <polygon id="path-1" points="0 0 1120 0 1120 874.31878 0 874.31878"></polygon>
    </defs>
    <g id="✅-Radar-covid-QR" stroke="none" stroke-width="1" fill="none" fill-rule="evenodd">
        <g id="4.-T_Radar-covid-sanitario/a-login--" transform="translate(-898.000000, -332.000000)">
            <rect fill="#FAF9F7" x="0" y="0" width="1024" height="768"></rect>
            <g id="Group-3-Copy" opacity="0.300292969" transform="translate(-48.000000, 114.000000)">
                <mask id="mask-2" fill="white">
                    <use xlink:href="#path-1"></use>
                </mask>
                <g id="Clip-2"></g>
                <path d="M1116.81359,453.619707 C1084.15277,716.595297 844.619585,903.286922 581.810523,870.605885 C318.993772,837.921001 -30.5327445,577.976919 2.13191971,315.005177 C34.7927392,52.0257406 407.960384,161.121543 687.178671,26.6041643 C925.792967,-88.3546046 1149.47441,190.647965 1116.81359,453.619707" id="Fill-1" fill="#EEEEEE" mask="url(#mask-2)"></path>
            </g>
            <g id="Group-4" transform="translate(583.000000, 178.000000)">
                <g id="form/text-input" transform="translate(0.000000, 144.000000)" fill="#FFFFFF" stroke="#65498D">
                    <rect id="Rectangle-Copy" x="0.5" y="0.5" width="344" height="39" rx="8"></rect>
                </g>
                <g id="Icon/check" transform="translate(315.000000, 154.000000)" fill="#65498D">
                    <path d="M10,0 C4.4771525,0 0,4.4771525 0,10 C0,15.5228475 4.4771525,20 10,20 C15.5228475,20 20,15.5228475 20,10 C20,4.4771525 15.5228475,0 10,0 Z M14.4036573,6.51168342 C14.5769164,6.31382879 14.8777635,6.2938902 15.0756182,6.46714933 C15.251489,6.62115745 15.2867841,6.87597585 15.1707708,7.06966045 L15.1201523,7.13911023 L9.56022179,13.4883166 C9.391435,13.681064 9.10538813,13.7026543 8.91048359,13.5512946 L8.84917692,13.4944334 L5.67894866,9.99742771 C5.5023113,9.8025831 5.51707118,9.50143746 5.71191579,9.32480009 C5.88511099,9.1677891 6.14229714,9.16200557 6.32136947,9.29950434 L6.3845434,9.35776722 L9.1952381,12.4587302 L14.4036573,6.51168342 Z" id="Oval"></path>
                </g>
            </g>
        </g>
    </g>
</svg>