<?xml version="1.0" encoding="UTF-8"?>
<svg width="20px" height="20px" viewBox="0 0 20 20" version="1.1" xmlns="http://www.w3.org/2000/svg" xmlns:xlink="http://www.w3.org/1999/xlink">
    <title>B66D13ED-9430-4152-A8F0-633CB9AE2C30</title>
    <defs>
        <polygon id="path-1" points="0 0 1120 0 1120 874.31878 0 874.31878"></polygon>
        <rect id="path-3" x="0" y="0" width="162" height="40" rx="8"></rect>
    </defs>
    <g id="✅-Radar-covid-QR" stroke="none" stroke-width="1" fill="none" fill-rule="evenodd">
        <g id="5.-T_Radar-covid-sanitario-crear-código--" transform="translate(-898.000000, -332.000000)">
            <rect fill="#FAF9F7" x="0" y="0" width="1024" height="768"></rect>
            <g id="Group-3-Copy" opacity="0.300292969" transform="translate(-48.000000, 114.000000)">
                <mask id="mask-2" fill="white">
                    <use xlink:href="#path-1"></use>
                </mask>
                <g id="Clip-2"></g>
                <path d="M1116.81359,453.619707 C1084.15277,716.595297 844.619585,903.286922 581.810523,870.605885 C318.993772,837.921001 -30.5327445,577.976919 2.13191971,315.005177 C34.7927392,52.0257406 407.960384,161.121543 687.178671,26.6041643 C925.792967,-88.3546046 1149.47441,190.647965 1116.81359,453.619707" id="Fill-1" fill="#EEEEEE" mask="url(#mask-2)"></path>
            </g>
            <g id="Group-6" transform="translate(583.000000, 178.000000)">
                <g id="Group-21" transform="translate(0.000000, 112.000000)">
                    <g id="Component/input-Copy" transform="translate(183.000000, 0.000000)">
                        <g id="container/rounded/border-fill" transform="translate(0.000000, 32.000000)">
                            <mask id="mask-4" fill="white">
                                <use xlink:href="#path-3"></use>
                            </mask>
                            <g id="Rectangle"></g>
                            <rect id="Rectangle-Copy" stroke="#65498D" fill="#FFFFFF" mask="url(#mask-4)" x="0.5" y="0.5" width="161" height="39" rx="8"></rect>
                            <g id="icons/calendario" mask="url(#mask-4)" fill="#65498D">
                                <g transform="translate(132.000000, 10.000000)" id="clock">
                                    <path d="M10,0 C15.5228475,0 20,4.4771525 20,10 C20,15.5228475 15.5228475,20 10,20 C4.4771525,20 0,15.5228475 0,10 C0,4.4771525 4.4771525,0 10,0 Z M10,1 C5.02943725,1 1,5.02943725 1,10 C1,14.9705627 5.02943725,19 10,19 C14.9705627,19 19,14.9705627 19,10 C19,5.02943725 14.9705627,1 10,1 Z M9,4.5 C9,4.22385763 9.22385763,4 9.5,4 C9.77614237,4 10,4.22385763 10,4.5 L10,11 L14.5,11 C14.7761424,11 15,11.2238576 15,11.5 C15,11.7761424 14.7761424,12 14.5,12 L9.5,12 C9.22385763,12 9,11.7761424 9,11.5 L9,4.5 Z"></path>
                                </g>
                            </g>
                        </g>
                        <text id="Input-text" font-family="Muli-Regular, Muli" font-size="16" font-weight="normal" line-spacing="24" fill="#575756">
                            <tspan x="12" y="56">hh:mm</tspan>
                        </text>
                    </g>
                </g>
            </g>
        </g>
    </g>
</svg>